<svg xmlns="http://www.w3.org/2000/svg" width="1600" height="900" viewBox="0 0 1600 900">
  <defs>
    <linearGradient id="sky" x1="0" y1="0" x2="0" y2="1">
      <stop offset="0" stop-color="#71c9ea"/>
      <stop offset="0.68" stop-color="#cdeff1"/>
      <stop offset="1" stop-color="#edf5d1"/>
    </linearGradient>
    <linearGradient id="meadow" x1="0" y1="0" x2="0" y2="1">
      <stop offset="0" stop-color="#8ed36f"/>
      <stop offset="1" stop-color="#54aa61"/>
    </linearGradient>
    <linearGradient id="soilLeft" x1="0" y1="0" x2="1" y2="1">
      <stop offset="0" stop-color="#91d476"/>
      <stop offset="1" stop-color="#4f9f61"/>
    </linearGradient>
    <linearGradient id="soilRight" x1="1" y1="0" x2="0" y2="1">
      <stop offset="0" stop-color="#8fd173"/>
      <stop offset="1" stop-color="#4c9b5e"/>
    </linearGradient>
    <linearGradient id="river" x1="0" y1="0" x2="0" y2="1">
      <stop offset="0" stop-color="#4f9e99"/>
      <stop offset="0.16" stop-color="#6abbb2"/>
      <stop offset="0.58" stop-color="#49a1a3"/>
      <stop offset="1" stop-color="#286f80"/>
    </linearGradient>
    <linearGradient id="bankCutLeft" x1="0" y1="0" x2="1" y2="0">
      <stop offset="0" stop-color="#4c7857"/>
      <stop offset="0.48" stop-color="#786f48"/>
      <stop offset="1" stop-color="#9a8050"/>
    </linearGradient>
    <linearGradient id="bankCutRight" x1="1" y1="0" x2="0" y2="0">
      <stop offset="0" stop-color="#4a7555"/>
      <stop offset="0.48" stop-color="#746b46"/>
      <stop offset="1" stop-color="#967c4d"/>
    </linearGradient>
    <linearGradient id="barnWall" x1="0" y1="0" x2="1" y2="1">
      <stop offset="0" stop-color="#c65445"/>
      <stop offset="1" stop-color="#963b36"/>
    </linearGradient>
    <filter id="softShadow" x="-30%" y="-30%" width="160%" height="180%">
      <feGaussianBlur in="SourceAlpha" stdDeviation="8"/>
      <feOffset dy="8"/>
      <feColorMatrix values="0 0 0 0 0.1 0 0 0 0 0.2 0 0 0 0 0.16 0 0 0 .22 0"/>
      <feMerge><feMergeNode/><feMergeNode in="SourceGraphic"/></feMerge>
    </filter>
  </defs>

  <rect width="1600" height="900" fill="url(#sky)"/>
  <circle cx="1390" cy="118" r="70" fill="#fff4a6" opacity=".92"/>
  <g fill="#fff" opacity=".72">
    <ellipse cx="240" cy="132" rx="105" ry="34"/>
    <ellipse cx="185" cy="142" rx="62" ry="28"/>
    <ellipse cx="305" cy="146" rx="72" ry="25"/>
    <ellipse cx="1040" cy="172" rx="118" ry="35"/>
    <ellipse cx="970" cy="182" rx="68" ry="27"/>
    <ellipse cx="1118" cy="185" rx="72" ry="25"/>
  </g>

  <path d="M0 392 Q170 265 350 390 Q535 238 720 405 Q920 250 1120 392 Q1370 225 1600 380 L1600 610 L0 610Z" fill="#86c783"/>
  <path d="M0 475 Q190 355 405 470 Q620 345 820 472 Q1065 342 1295 457 Q1460 360 1600 432 L1600 650 L0 650Z" fill="#5da970"/>
  <path d="M0 535 Q250 450 520 535 Q790 438 1040 530 Q1320 445 1600 520 L1600 720 L0 720Z" fill="#3d8c60" opacity=".78"/>

  <path d="M0 500 Q325 455 650 545 L650 900 L0 900Z" fill="url(#meadow)"/>
  <path d="M1200 545 Q1400 470 1600 505 L1600 900 L1200 900Z" fill="url(#meadow)"/>

  <path d="M650 545 C770 570 1075 570 1200 545 L1360 900 L515 900Z" fill="url(#river)"/>
  <path d="M650 545 C760 565 1080 566 1200 545 L1208 572 C1075 598 780 598 642 572Z" fill="#235f68" opacity=".26"/>
  <path d="M642 572 C785 598 1074 598 1208 572 L1215 590 C1068 616 790 615 635 590Z" fill="#a9ded1" opacity=".46"/>
  <path d="M737 575 C805 610 1050 610 1120 575 C1055 655 820 655 737 575Z" fill="#d2eee0" opacity=".24"/>
  <path d="M675 655 Q820 625 950 650 Q1085 620 1225 657" fill="none" stroke="#daf1ea" stroke-width="5" stroke-linecap="round" opacity=".16"/>
  <path d="M610 740 Q800 690 990 735 Q1135 700 1280 748" fill="none" stroke="#bde6dd" stroke-width="9" stroke-linecap="round" opacity=".28"/>
  <path d="M560 842 Q760 790 960 840 Q1160 780 1310 835" fill="none" stroke="#d4eee7" stroke-width="7" stroke-linecap="round" opacity=".22"/>

  <path d="M0 555 Q300 500 650 545 L632 590 L610 660 L580 745 L548 825 L515 900 L0 900Z" fill="url(#soilLeft)"/>
  <path d="M1600 550 Q1390 505 1200 545 L1216 590 L1240 660 L1270 745 L1310 825 L1360 900 L1600 900Z" fill="url(#soilRight)"/>
  <path d="M650 545 L632 590 L610 660 L580 745 L548 825 L515 900 L543 900 L575 828 L607 749 L637 665 L660 594 L678 554Z" fill="url(#bankCutLeft)" opacity=".92"/>
  <path d="M1200 545 L1216 590 L1240 660 L1270 745 L1310 825 L1360 900 L1332 900 L1282 828 L1243 749 L1213 665 L1189 594 L1173 554Z" fill="url(#bankCutRight)" opacity=".92"/>
  <path d="M650 545 L632 590 L610 660 L580 745 L548 825 L515 900" fill="none" stroke="#3c6650" stroke-width="9" stroke-linecap="round" stroke-linejoin="round" opacity=".44"/>
  <path d="M1200 545 L1216 590 L1240 660 L1270 745 L1310 825 L1360 900" fill="none" stroke="#3a634e" stroke-width="9" stroke-linecap="round" stroke-linejoin="round" opacity=".44"/>
  <path d="M0 555 Q310 500 650 545" fill="none" stroke="#315f47" stroke-width="24" stroke-linecap="round" opacity=".28" transform="translate(0 10)"/>
  <path d="M1200 545 Q1400 490 1600 550" fill="none" stroke="#315f47" stroke-width="24" stroke-linecap="round" opacity=".28" transform="translate(0 10)"/>
  <path d="M0 555 Q310 500 650 545" fill="none" stroke="#74be63" stroke-width="18" stroke-linecap="round"/>
  <path d="M1200 545 Q1400 490 1600 550" fill="none" stroke="#74be63" stroke-width="18" stroke-linecap="round"/>

  <g filter="url(#softShadow)">
    <rect x="55" y="335" width="210" height="190" rx="5" fill="url(#barnWall)"/>
    <path d="M30 345 L160 250 L290 345Z" fill="#7e332f"/>
    <rect x="123" y="408" width="78" height="117" rx="4" fill="#74402f"/>
    <path d="M130 415 L194 518 M194 415 L130 518" stroke="#f3d49b" stroke-width="10"/>
    <rect x="75" y="372" width="34" height="38" fill="#c8e8ef" stroke="#f9e5b7" stroke-width="6"/>
    <rect x="213" y="372" width="34" height="38" fill="#c8e8ef" stroke="#f9e5b7" stroke-width="6"/>
    <rect x="151" y="282" width="20" height="55" fill="#fff1cb"/>
  </g>

  <g transform="translate(1430 338)" opacity=".82">
    <rect x="-8" y="0" width="16" height="170" rx="7" fill="#a8794d"/>
    <circle cx="0" cy="0" r="18" fill="#f6e2a2" stroke="#9c7049" stroke-width="5"/>
    <g fill="#fff2c8" stroke="#a77a50" stroke-width="4">
      <path d="M0 -10 L-18 -102 L18 -102Z"/>
      <path d="M10 0 L102 -18 L102 18Z"/>
      <path d="M0 10 L18 102 L-18 102Z"/>
      <path d="M-10 0 L-102 18 L-102 -18Z"/>
    </g>
  </g>

  <g fill="#ffe681" opacity=".9">
    <circle cx="92" cy="566" r="7"/><circle cx="285" cy="542" r="6"/><circle cx="430" cy="570" r="7"/>
    <circle cx="1275" cy="555" r="7"/><circle cx="1450" cy="575" r="6"/><circle cx="1550" cy="550" r="7"/>
  </g>
</svg>
